<?xml version="1.0" encoding="utf-8"?>
<!-- Generator: Adobe Illustrator 16.0.0, SVG Export Plug-In . SVG Version: 6.00 Build 0)  -->
<!DOCTYPE svg PUBLIC "-//W3C//DTD SVG 1.1//EN" "http://www.w3.org/Graphics/SVG/1.1/DTD/svg11.dtd">
<svg version="1.1" id="Layer_1" xmlns="http://www.w3.org/2000/svg" xmlns:xlink="http://www.w3.org/1999/xlink" x="0px" y="0px"
	 width="1024px" height="1024px" viewBox="0 0 1024 1024" enable-background="new 0 0 1024 1024" xml:space="preserve">
<rect id="back" fill="#1B1E21" width="1024" height="1024"/>
<radialGradient id="inner_1_" cx="527.7852" cy="564.2363" r="302.7035" gradientTransform="matrix(1.0415 0 0 -0.9619 -37.6868 1054.7395)" gradientUnits="userSpaceOnUse">
	<stop  offset="0" style="stop-color:#434E57"/>
	<stop  offset="1" style="stop-color:#1B1E21"/>
</radialGradient>
<rect id="inner" x="209.5" y="209.5" fill="url(#inner_1_)" width="605.002" height="605.002"/>
<linearGradient id="logo_1_" gradientUnits="userSpaceOnUse" x1="26.1885" y1="652.8408" x2="28.4039" y2="656.9885" gradientTransform="matrix(106.7749 0 0 -106.7696 -2425.1016 70481.9531)">
	<stop  offset="0" style="stop-color:#7F0000"/>
	<stop  offset="1" style="stop-color:#AF3A31"/>
</linearGradient>
<path id="logo" fill="url(#logo_1_)" d="M565.555,172l-116.685,1.937l-23.728,17.85l1.971,1.938l-77.129,1.94l5.933-7.938
	l-176.015-3.963l-1.97,11.903l-1.971,17.849l11.865,21.812l-5.934,45.612L172,320.602l5.933,37.673l1.97,29.75l11.865,39.662
	l-3.958,19.823l1.971,21.812l13.841,15.878l3.958,25.791l-25.704,9.912l3.958,79.322l15.832,11.897l-9.901,69.411l-7.903,3.967
	l-5.931,132.877l6.987-0.94l16.811,3.467c0,0,20.282,7.039,24.483,8.434c4.195,1.38,10.434-6.321,10.434-6.321h16.815l13.976-2.812
	l7.714,3.539l6.985-0.695l17.498-1.324l8.342-3.533l3.524,8.429l2.785-2.022l7.719-3.529l16.064-1.333l3.466,4.9
	c0,0,19.584,2.016,26.571,2.016s5.625-5.641,5.625-5.641s2.075-0.629,5.563,2.855c3.499,3.505,8.393-1.355,8.393-1.355l6.988-3.539
	l4.947,4.963l4.883,3.473l13.294-2.771h21.625l4.947-1.378L464.649,852l1.358-14.691h32.878c2.802,0,1.427,9.797,1.427,9.797
	l21.625-7.011l11.181,11.209l23.121-14.752l12.545-2.03l24.486-1.322h34.979l39.868,2.769l10.502-4.219l7.673-7.004l21.006,11.906
	l15.339-6.309c0,0,16.792,6.359,19.596,7.073c2.802,0.696,28.674-2.855,28.674-2.855l16.071-4.218l-10.433-7.686l6.973-2.775
	l29.369,1.332L852,831.052l-0.678-256.023v-16.113l-9.763,1.376l-12.611,2.036v-7.748l6.984-6.325l5.627-8.363l1.363-30.176
	l-2.108-21.761l-9.082-26.64l-8.35-11.222l-1.426-10.475l2.109-7.019l0.681-2.039l9.074-3.539l1.429-3.535l-6.979-11.897l6.3-3.59
	l9.896-5.948l3.96-35.687l1.972-23.797v-83.303l-5.935-23.803l3.962-25.771l1.97-9.912l-17.797-7.939l-67.253-11.886l-9.893,13.874
	l-3.961-15.859L622.95,176.03l-3.966,21.81l-31.634,3.981l-3.967-13.893l-27.69-3.961l9.895-11.899L565.555,172z M314.254,283.98
	l460.172,312.725l-36.393,130.374l-86.713,2.854L249.96,300.846L314.303,284 M679.315,289.644l50.366,26.588l-14.025,98.161
	l-9.756,2.854L571.658,314.905l107.656-25.229 M301.757,571.529l137.019,137.358l-82.52,29.449l-43.327-2.772l-53.16-44.863
	l41.971-119.172"/>
</svg>
