<?xml version="1.0" encoding="utf-8"?>
<!DOCTYPE svg PUBLIC "-//W3C//DTD SVG 1.1//EN" "http://www.w3.org/Graphics/SVG/1.1/DTD/svg11.dtd">
<svg version="1.1" id="Layer_1" xmlns="http://www.w3.org/2000/svg" xmlns:xlink="http://www.w3.org/1999/xlink" x="0px" y="0px"
	 width="1024px" height="1024px" viewBox="0 0 1024 1024" enable-background="new 0 0 1024 1024" xml:space="preserve">
<rect id="back" fill="#1B1E21" width="1024" height="1024"/>
<radialGradient id="inner_1_" cx="501.7031" cy="523.3975" r="319.3629" gradientTransform="matrix(1.0415 0 0 0.9619 -10.5381 8.5536)" gradientUnits="userSpaceOnUse">
	<stop  offset="0" style="stop-color:#434E57"/>
	<stop  offset="1" style="stop-color:#1B1E21"/>
</radialGradient>
<rect id="inner" x="192.851" y="192.851" fill="url(#inner_1_)" width="638.299" height="638.299"/>
<linearGradient id="logo_1_" gradientUnits="userSpaceOnUse" x1="-204.2983" y1="340.5176" x2="-202.0829" y2="336.37" gradientTransform="matrix(106.7749 0 0 106.7696 22185.0664 -35578.4062)">
	<stop  offset="0" style="stop-color:#7F0000"/>
	<stop  offset="1" style="stop-color:#AF3A31"/>
</linearGradient>
<path id="logo" fill="url(#logo_1_)" d="M565.555,172l-116.685,1.937l-23.727,17.85l1.97,1.938l-77.129,1.94l5.933-7.938
	l-176.015-3.963l-1.97,11.903l-1.971,17.849l11.865,21.812l-5.934,45.612L172,320.602l5.933,37.673l1.97,29.75l11.865,39.662
	l-3.958,19.823l1.971,21.811l13.841,15.878l3.958,25.791l-25.704,9.912l3.958,79.323l15.832,11.897l-9.901,69.411l-7.903,3.967
	l-5.931,132.877l6.987-0.94l16.811,3.466c0,0,20.282,7.039,24.483,8.434c4.195,1.38,10.434-6.321,10.434-6.321h16.815l13.976-2.812
	l7.714,3.539l6.985-0.695l17.498-1.324l8.342-3.534l3.524,8.429l2.785-2.022l7.719-3.53l16.064-1.333l3.466,4.901
	c0,0,19.584,2.015,26.571,2.015c6.988,0,5.625-5.64,5.625-5.64s2.076-0.629,5.564,2.855c3.499,3.505,8.393-1.355,8.393-1.355
	l6.988-3.539l4.947,4.963l4.883,3.472l13.294-2.771h21.625l4.947-1.378L464.649,852l1.359-14.691h32.878
	c2.802,0,1.427,9.796,1.427,9.796l21.625-7.01l11.18,11.209l23.121-14.752l12.545-2.03l24.487-1.323h34.978l39.868,2.769
	l10.502-4.219l7.673-7.004l21.006,11.906l15.339-6.308c0,0,16.792,6.359,19.596,7.073c2.801,0.696,28.673-2.855,28.673-2.855
	l16.072-4.218l-10.433-7.686l6.973-2.775l29.369,1.332L852,831.052l-0.678-256.024v-16.113l-9.762,1.376l-12.612,2.036v-7.748
	l6.985-6.325l5.627-8.363l1.363-30.176l-2.109-21.761l-9.082-26.64l-8.349-11.221l-1.426-10.475l2.109-7.018l0.681-2.04l9.074-3.539
	l1.429-3.535l-6.979-11.897l6.3-3.59l9.896-5.948l3.96-35.687l1.971-23.797v-83.303l-5.934-23.803l3.962-25.771l1.97-9.912
	l-17.797-7.939l-67.253-11.886l-9.893,13.874l-3.961-15.859l-128.542-1.938l-3.966,21.81l-31.633,3.981l-3.967-13.893l-27.691-3.961
	l9.895-11.899L565.555,172z M314.254,283.98l460.172,312.725l-36.393,130.374l-86.713,2.855l-401.36-429.088L314.303,284
	 M679.315,289.644l50.367,26.588l-14.026,98.161l-9.756,2.854L571.658,314.905l107.656-25.228 M301.757,571.529l137.018,137.359
	l-82.519,29.449l-43.327-2.773l-53.16-44.863l41.971-119.172"/>
</svg>
