<svg width="128" height="128" xmlns="http://www.w3.org/2000/svg">
 <defs>
  <linearGradient y2="0.376442" x2="0.8955" y1="1.027761" x1="0.547604" id="1">
   <stop id="stop73" stop-color="#7f0000"/>
   <stop id="stop75" stop-color="#CD5F51" offset="1"/>
  </linearGradient>
 </defs>
 <g id="g83">
  <title>background</title>
  <rect x="-1" y="-1" width="130" height="130" id="canvas_background" fill="none"/>
 </g>
 <g id="g90">
  <title>Layer 1</title>
  <g stroke="null" id="svg_1">
   <rect stroke="#212121" rx="2.982" y="8.603405" x="8.737408" height="110.793191" width="110.525187" fill="none" fill-rule="evenodd" stroke-width="18" id="svg_2"/>
   <path stroke="#212121" d="m72.409648,10.615198l-18.322117,0.304296l-3.72635,2.802777l0.309633,0.304296l-12.110637,0.304307l0.931587,-1.246567l-27.638002,-0.621944l-0.309643,1.868512l-0.309643,2.802767l1.863175,3.424722l-0.931587,7.161755l-1.553532,6.227489l0.931587,5.915188l0.309643,4.671279l1.863175,6.227499l-0.621955,3.11241l0.309643,3.424722l2.172818,2.493134l0.621944,4.049334l-4.035993,1.55621l0.621955,12.454978l2.485119,1.868522l-1.553532,10.898778l-1.241231,0.621944l-0.931587,20.863301l1.097082,-0.146807l2.639941,0.544534c0,0 3.184485,1.105097 3.843805,1.323978c0.659321,0.216212 1.638958,-0.992978 1.638958,-0.992978l2.639941,0l2.194175,-0.44044l1.211859,0.555217l1.097092,-0.10944l2.746713,-0.208208l1.310626,-0.555217l0.552549,1.323978l0.437772,-0.317648l1.211859,-0.555217l2.522496,-0.208208l0.544544,0.768761c0,0 3.075034,0.317648 4.172126,0.317648c1.097082,0 0.883538,-0.886206 0.883538,-0.886206c0,0 0.325653,-0.098767 0.872865,0.448445c0.54987,0.54987 1.318631,-0.213544 1.318631,-0.213544l1.097082,-0.555217l0.776776,0.779434l0.766083,0.544544l2.087402,-0.435103l3.395361,0l0.776766,-0.216212l3.184485,4.513799l0.213544,-2.306283l5.162437,0c0.44044,0 0.224227,1.537522 0.224227,1.537522l3.39535,-1.09975l1.756403,1.759071l3.630261,-2.316956l1.969947,-0.317648l3.843805,-0.208208l5.493426,0l6.259529,0.435093l1.649631,-0.661989l1.203854,-1.09975l3.299272,1.868512l2.407709,-0.99031c0,0 2.637273,0.998325 3.077713,1.110434c0.44044,0.10944 4.503126,-0.448445 4.503126,-0.448445l2.522485,-0.661989l-1.638947,-1.206523l1.097082,-0.435103l4.609898,0.208208l6.142074,1.545527l-0.106772,-40.199762l0,-2.530501l-1.532186,0.216212l-1.98063,0.320316l0,-1.217196l1.097092,-0.992989l0.883538,-1.313295l0.213544,-4.738017l-0.331,-3.416717l-1.425403,-4.1828l-1.310626,-1.76175l-0.224227,-1.644294l0.331,-1.102419l0.106772,-0.320316l1.425403,-0.555217l0.224227,-0.555217l-1.097092,-1.868512l0.99032,-0.563232l1.553532,-0.934256l0.621955,-5.602877l0.309633,-3.737023l0,-13.079601l-0.931587,-3.737033l0.621955,-4.046666l0.309633,-1.55621l-2.794762,-1.246567l-10.559774,-1.865843l-1.553542,2.178155l-0.621944,-2.490466l-20.185302,-0.304296l-0.621944,3.424722l-4.967581,0.624613l-0.621955,-2.180823l-4.348294,-0.621944l1.553532,-1.868522l-0.005337,-0.010673zm-39.460363,17.582727l72.258143,49.10189l-5.714985,20.47092l-13.61614,0.448445l-63.022327,-67.37331l10.103324,-2.645277m57.315357,0.886206l7.90915,4.174795l-2.202179,15.412577l-1.532175,0.448445l-21.079523,-16.06923l16.904718,-3.961251m-59.285304,44.254444l21.514616,21.567992l-12.956819,4.62324l-6.804063,-0.435093l-8.346921,-7.0443l6.590518,-18.711839" fill="url(#1)" id="svg_3"/>
  </g>
 </g>
</svg>