<svg width="128" height="128" xmlns="http://www.w3.org/2000/svg">
 <defs>
  <linearGradient id="1" x1="0.480763" y1="1.098027" x2="0.473263" y2="-0.086752">
   <stop stop-color="#d3d3d3"/>
   <stop offset="1" stop-color="#fcf9f9"/>
  </linearGradient>
 </defs>
 <g>
  <title>background</title>
  <rect fill="none" id="canvas_background" height="130" width="130" y="-1" x="-1"/>
 </g>
 <g>
  <title>Layer 1</title>
  <g stroke="null" id="svg_1">
   <rect stroke="#212121" id="svg_2" stroke-width="18" fill-rule="evenodd" fill="none" width="108.525185" height="108.788339" x="9.737407" y="9.605831" rx="2.982"/>
   <path stroke="#212121" style="vector-effect: non-scaling-stroke;" id="svg_3" fill="url(#1)" d="m72.257473,11.581219l-17.990575,0.298795l-3.658922,2.752055l0.304037,0.298795l-11.891497,0.298795l0.914731,-1.224009l-27.137881,-0.610694l-0.304037,1.834703l-0.304037,2.752055l1.829461,3.362749l-0.914731,7.032155l-1.525425,6.114803l0.914731,5.808146l0.304037,4.586758l1.829461,6.114803l-0.610694,3.056091l0.304037,3.362749l2.133498,2.448018l0.610694,3.976064l-3.962959,1.528046l0.610694,12.229607l2.440155,1.834703l-1.525425,10.701561l-1.218767,0.610694l-0.914731,20.485771l1.077233,-0.144155l2.592173,0.534685c0,0 3.126858,1.085096 3.774246,1.300018c0.647388,0.212301 1.609297,-0.975014 1.609297,-0.975014l2.592173,0l2.154466,-0.432466l1.189936,0.545169l1.077233,-0.107461l2.697014,-0.204438l1.286913,-0.545169l0.542548,1.300018l0.429845,-0.3119l1.189936,-0.545169l2.476849,-0.204438l0.534685,0.754849c0,0 3.019397,0.3119 4.09663,0.3119c1.077233,0 0.867552,-0.870173 0.867552,-0.870173c0,0 0.319763,-0.096977 0.857068,0.440329c0.539927,0.539927 1.294776,-0.20968 1.294776,-0.20968l1.077233,-0.545169l0.762712,0.765333l0.752228,0.534685l2.049626,-0.427224l3.333918,0l0.762712,-0.212301l3.126858,4.432119l0.20968,-2.264548l5.069023,0c0.432466,0 0.220164,1.509699 0.220164,1.509699l3.333918,-1.079854l1.724621,1.727242l3.564566,-2.275032l1.934301,-0.3119l3.774246,-0.204438l5.394027,0l6.146256,0.427224l1.619781,-0.650009l1.182073,-1.079854l3.239562,1.834703l2.364146,-0.972393c0,0 2.589552,0.980256 3.022018,1.090338c0.432466,0.107461 4.421635,-0.440329 4.421635,-0.440329l2.476849,-0.650009l-1.609297,-1.184694l1.077233,-0.427224l4.526475,0.204438l6.030931,1.517562l-0.10484,-39.472328l0,-2.484712l-1.504457,0.212301l-1.944785,0.314521l0,-1.195178l1.077233,-0.975014l0.867552,-1.289534l0.20968,-4.652283l-0.325005,-3.354886l-1.399616,-4.107114l-1.286913,-1.729863l-0.220164,-1.614539l0.325005,-1.082475l0.10484,-0.314521l1.399616,-0.545169l0.220164,-0.545169l-1.077233,-1.834703l0.972393,-0.553032l1.525425,-0.917352l0.610694,-5.501488l0.304037,-3.669406l0,-12.842922l-0.914731,-3.669406l0.610694,-3.973443l0.304037,-1.528046l-2.744192,-1.224009l-10.368694,-1.832082l-1.525425,2.13874l-0.610694,-2.445397l-19.820036,-0.298795l-0.610694,3.362749l-4.877689,0.613315l-0.610694,-2.141361l-4.269616,-0.610694l1.525425,-1.834703l-0.005242,-0.010484zm-38.746309,17.264557l70.950592,48.213378l-5.611571,20.100483l-13.369744,0.440329l-61.881916,-66.154154l9.920502,-2.597415m56.278209,0.870173l7.766036,4.099251l-2.162329,15.13368l-1.504457,0.440329l-20.698073,-15.778447l16.598821,-3.889571m-58.21251,43.453634l21.125296,21.177716l-12.722356,4.53958l-6.68094,-0.427224l-8.195881,-6.916831l6.47126,-18.373242"/>
  </g>
 </g>
</svg>