<?xml version="1.0" encoding="utf-8"?>
<!-- Generator: Adobe Illustrator 16.0.0, SVG Export Plug-In . SVG Version: 6.00 Build 0)  -->
<!DOCTYPE svg PUBLIC "-//W3C//DTD SVG 1.1//EN" "http://www.w3.org/Graphics/SVG/1.1/DTD/svg11.dtd">
<svg version="1.1" id="Layer_1" xmlns="http://www.w3.org/2000/svg" xmlns:xlink="http://www.w3.org/1999/xlink" x="0px" y="0px"
	 width="1024px" height="1024px" viewBox="0 0 1024 1024" enable-background="new 0 0 1024 1024" xml:space="preserve">
<radialGradient id="inner_1_" cx="579.9189" cy="754.4863" r="175.1713" gradientTransform="matrix(1.0415 0 0 -0.9619 -91.9847 1237.7395)" gradientUnits="userSpaceOnUse">
	<stop  offset="0" style="stop-color:#434E57"/>
	<stop  offset="1" style="stop-color:#1B1E21"/>
</radialGradient>
<rect id="inner" x="336.946" y="336.946" fill="url(#inner_1_)" width="350.107" height="350.107"/>
<linearGradient id="logo_1_" gradientUnits="userSpaceOnUse" x1="487.7178" y1="655.6064" x2="488.9998" y2="658.0065" gradientTransform="matrix(106.7749 0 0 -106.7696 -51645.4766 70664.9531)">
	<stop  offset="0" style="stop-color:#7F0000"/>
	<stop  offset="1" style="stop-color:#AF3A31"/>
</linearGradient>
<path id="logo" fill="url(#logo_1_)" d="M542.991,315.246l-67.523,1.121l-13.732,10.33l1.142,1.121l-44.633,1.123l3.433-4.594
	l-101.858-2.293l-1.14,6.887l-1.141,10.329l6.866,12.623l-3.434,26.395l-5.725,22.952l3.433,21.801l1.14,17.216l6.866,22.952
	l-2.291,11.471l1.141,12.623l8.009,9.189l2.291,14.925l-14.875,5.736l2.291,45.901l9.162,6.886l-5.73,40.166l-4.573,2.297
	l-3.432,76.894l4.043-0.544l9.729,2.007c0,0,11.737,4.074,14.168,4.88c2.429,0.799,6.039-3.658,6.039-3.658h9.73l8.088-1.626
	l4.463,2.046l4.043-0.401l10.125-0.767l4.827-2.043l2.04,4.877l1.612-1.171l4.467-2.042l9.296-0.771l2.005,2.835
	c0,0,11.333,1.167,15.376,1.167s3.255-3.265,3.255-3.265s1.201-0.363,3.219,1.652c2.024,2.027,4.856-0.785,4.856-0.785l4.043-2.048
	l2.864,2.871l2.825,2.012l7.693-1.603h12.514l2.863-0.797l11.735,16.631l0.786-8.501h19.027c1.622,0,0.825,5.67,0.825,5.67
	l12.515-4.058l6.471,6.485l13.38-8.536l7.259-1.174l14.17-0.766h20.242l23.072,1.602l6.077-2.44l4.44-4.054l12.156,6.891l8.875-3.65
	c0,0,9.718,3.68,11.341,4.092c1.622,0.402,16.594-1.652,16.594-1.652l9.3-2.439l-6.037-4.449l4.034-1.606l16.996,0.772l22.634,5.692
	l-0.392-148.156v-9.325l-5.65,0.797l-7.299,1.177v-4.484l4.044-3.659l3.255-4.84l0.789-17.462l-1.22-12.593l-5.255-15.416
	l-4.833-6.494l-0.825-6.062l1.221-4.063l0.396-1.178l5.25-2.049l0.826-2.045l-4.037-6.886l3.645-2.077l5.727-3.442l2.291-20.652
	l1.142-13.77v-48.207l-3.436-13.774l2.294-14.914l1.139-5.735l-10.298-4.595l-38.919-6.877l-5.724,8.028l-2.292-9.178l-74.387-1.121
	l-2.293,12.622l-18.307,2.303l-2.297-8.041l-16.022-2.292l5.726-6.885L542.991,315.246z M397.567,380.047l266.296,180.971
	l-21.062,75.445l-50.179,1.65L360.361,389.808l37.235-9.749 M608.823,383.325l29.146,15.387l-8.115,56.805l-5.646,1.65
	l-77.685-59.223l62.3-14.601 M390.335,546.449l79.292,79.484l-47.754,17.043l-25.073-1.603l-30.763-25.963l24.289-68.962"/>
</svg>
