<?xml version="1.0" encoding="utf-8"?>
<!-- Generator: Adobe Illustrator 16.0.0, SVG Export Plug-In . SVG Version: 6.00 Build 0)  -->
<!DOCTYPE svg PUBLIC "-//W3C//DTD SVG 1.1//EN" "http://www.w3.org/Graphics/SVG/1.1/DTD/svg11.dtd">
<svg version="1.1" id="Layer_1" xmlns="http://www.w3.org/2000/svg" xmlns:xlink="http://www.w3.org/1999/xlink" x="0px" y="0px"
	 width="1024px" height="1024px" viewBox="0.5 762.5 1024 1024" enable-background="new 0.5 762.5 1024 1024" xml:space="preserve">
<rect id="back" x="0.5" y="762.5" fill="#1B1E21" width="1024" height="1024"/>
<radialGradient id="inner_1_" cx="440.9111" cy="767.4512" r="302.7035" gradientTransform="matrix(1.0415 0 0 0.9619 53.2922 536.2905)" gradientUnits="userSpaceOnUse">
	<stop  offset="0" style="stop-color:#434E57"/>
	<stop  offset="1" style="stop-color:#1B1E21"/>
</radialGradient>
<rect id="inner" x="210" y="972" fill="url(#inner_1_)" width="605.002" height="605.002"/>
<linearGradient id="logo_1_" gradientUnits="userSpaceOnUse" x1="25.8364" y1="114.7871" x2="28.0518" y2="110.6394" gradientTransform="matrix(106.7749 0 0 106.7696 -2387.0125 -10714.8828)">
	<stop  offset="0" style="stop-color:#7F0000"/>
	<stop  offset="1" style="stop-color:#AF3A31"/>
</linearGradient>
<path id="logo" fill="url(#logo_1_)" d="M566.055,934.5l-116.685,1.938l-23.729,17.85l1.972,1.938l-77.129,1.94l5.933-7.938
	l-176.015-3.963l-1.97,11.903l-1.971,17.849l11.865,21.812l-5.934,45.611l-9.892,39.662l5.933,37.674l1.97,29.75l11.865,39.661
	l-3.958,19.823l1.971,21.812l13.841,15.878l3.958,25.791l-25.704,9.912l3.958,79.321l15.832,11.897l-9.901,69.411l-7.903,3.967
	l-5.931,132.877l6.987-0.94l16.811,3.468c0,0,20.282,7.039,24.483,8.434c4.195,1.38,10.434-6.321,10.434-6.321h16.815l13.976-2.812
	l7.714,3.539l6.985-0.695l17.498-1.324l8.342-3.532l3.524,8.429l2.785-2.022l7.719-3.528l16.064-1.333l3.466,4.899
	c0,0,19.584,2.017,26.571,2.017s5.625-5.642,5.625-5.642s2.075-0.629,5.563,2.855c3.499,3.505,8.393-1.355,8.393-1.355l6.988-3.539
	l4.947,4.963l4.883,3.474l13.294-2.771h21.625l4.947-1.378l20.279,28.74l1.357-14.691h32.878c2.803,0,1.428,9.798,1.428,9.798
	l21.625-7.012l11.181,11.209l23.121-14.752l12.545-2.03l24.485-1.321h34.979l39.868,2.769l10.502-4.219l7.673-7.004l21.006,11.906
	l15.339-6.31c0,0,16.792,6.359,19.597,7.073c2.802,0.696,28.674-2.855,28.674-2.855l16.07-4.218l-10.433-7.686l6.973-2.775
	l29.369,1.332l39.113,9.838l-0.678-256.022v-16.113l-9.764,1.376l-12.61,2.036v-7.748l6.983-6.325l5.627-8.363l1.363-30.176
	l-2.107-21.761l-9.082-26.64l-8.351-11.223l-1.426-10.475l2.109-7.02l0.681-2.038l9.074-3.539l1.429-3.535l-6.979-11.897l6.3-3.59
	l9.896-5.948l3.96-35.687l1.973-23.797v-83.304l-5.936-23.803l3.962-25.771l1.97-9.912l-17.797-7.938l-67.253-11.886l-9.893,13.874
	l-3.961-15.858l-128.541-1.939l-3.966,21.811l-31.635,3.98l-3.967-13.893l-27.689-3.961l9.895-11.898L566.055,934.5z
	 M314.754,1046.48l460.172,312.725l-36.393,130.374l-86.713,2.854l-401.36-429.087l64.343-16.846 M679.815,1052.145l50.365,26.588
	l-14.024,98.16l-9.756,2.854l-134.242-102.342l107.656-25.229 M302.257,1334.029l137.02,137.357l-82.521,29.449l-43.327-2.771
	l-53.16-44.863l41.971-119.172"/>
</svg>
