<?xml version="1.0" encoding="utf-8"?>
<!-- Generator: Adobe Illustrator 16.0.0, SVG Export Plug-In . SVG Version: 6.00 Build 0)  -->
<!DOCTYPE svg PUBLIC "-//W3C//DTD SVG 1.1//EN" "http://www.w3.org/Graphics/SVG/1.1/DTD/svg11.dtd">
<svg version="1.1" id="all" xmlns="http://www.w3.org/2000/svg" xmlns:xlink="http://www.w3.org/1999/xlink" x="0px" y="0px"
	 width="1024px" height="1024px" viewBox="-287.5 762.5 1024 1024" enable-background="new -287.5 762.5 1024 1024"
	 xml:space="preserve">
<rect id="back" x="-287.5" y="762.5" fill="#1B1E21" width="1024" height="1024"/>
<radialGradient id="inner_1_" cx="-622.833" cy="398.4194" r="302.7038" gradientTransform="matrix(1.0415 0 0 -0.9619 873.1813 1667.7393)" gradientUnits="userSpaceOnUse">
	<stop  offset="0" style="stop-color:#434E57"/>
	<stop  offset="1" style="stop-color:#1B1E21"/>
</radialGradient>
<rect id="inner" x="-78.001" y="981.999" fill="url(#inner_1_)" width="605.002" height="605.002"/>
<g id="logo_1_" display="none">
	<g id="info_b_small_1_" opacity="0.6">
		<g id="i_4_" display="inline">
			<path fill="#FFFFFF" d="M340.604,1287.328c0.176,3.088,0.033,5.881-2.408,8.502c-5.551,5.949-11.239,11.559-19.337,13.881
				c-4.956,1.422-9.894,1.99-14.878-0.072c-4.604-1.91-8.225-6.066-5.641-12.74c6.008-15.525,11.609-31.209,17.385-46.828
				c0.443-1.199,1.042-2.391-0.156-3.488c-1.219-1.123-2.509-0.648-3.735-0.041c-1.616,0.797-3.045,1.883-4.287,3.188
				c-3.234,3.391-6.451,6.799-9.949,9.998c-0.629-3.215-0.858-5.934,1.729-8.461c7.484-7.312,15.649-13.338,26.177-15.369
				c6.575-1.27,13.021,2.406,14.361,8.004c0.489,2.053,0.143,3.967-0.577,5.898c-5.782,15.533-11.539,31.076-17.296,46.623
				c-0.456,1.227-1.271,2.514,0.077,3.684c1.311,1.141,2.677,0.562,3.966-0.049c1.559-0.74,2.95-1.748,4.135-3.008
				c3.227-3.424,6.437-6.857,9.65-10.287C340.08,1286.947,340.342,1287.139,340.604,1287.328z"/>
			<path fill="#FFFFFF" d="M338.045,1207.887c2.886,0.006,5.604,0.645,8.042,2.242c6.131,4.012,6.131,12.336-0.143,16.098
				c-5.201,3.123-10.669,3.133-15.876,0.029c-6.479-3.859-6.351-12.398,0.097-16.324
				C332.384,1208.582,335.107,1207.877,338.045,1207.887z"/>
		</g>
		<path display="inline" fill="#FFFFFF" d="M323.926,1149.941c-60.473,0-109.495,49.023-109.495,109.494
			s49.022,109.496,109.495,109.496c60.47,0,109.493-49.025,109.493-109.496S384.396,1149.941,323.926,1149.941z M323.926,1348.359
			c-49.111,0-88.924-39.812-88.924-88.924c0-49.109,39.812-88.922,88.924-88.922c49.109,0,88.921,39.812,88.921,88.922
			C412.847,1308.547,373.035,1348.359,323.926,1348.359z"/>
	</g>
	<g id="info_b_small_2">
		<g id="i_2_" display="inline">
			<path fill="#DAA520" d="M278.104,1235.832c0.176,3.09,0.033,5.881-2.408,8.502c-5.551,5.949-11.239,11.559-19.337,13.881
				c-4.956,1.422-9.894,1.99-14.878-0.072c-4.604-1.91-8.225-6.066-5.641-12.74c6.008-15.525,11.609-31.209,17.385-46.828
				c0.443-1.199,1.042-2.391-0.156-3.49c-1.219-1.121-2.509-0.646-3.735-0.041c-1.616,0.799-3.045,1.885-4.287,3.189
				c-3.234,3.389-6.451,6.797-9.949,9.996c-0.63-3.215-0.86-5.932,1.728-8.459c7.484-7.312,15.649-13.338,26.177-15.369
				c6.575-1.27,13.021,2.406,14.36,8.004c0.49,2.051,0.144,3.967-0.576,5.896c-5.782,15.535-11.539,31.078-17.297,46.625
				c-0.455,1.225-1.27,2.512,0.078,3.684c1.311,1.139,2.677,0.562,3.965-0.051c1.56-0.74,2.951-1.748,4.136-3.008
				c3.227-3.422,6.437-6.857,9.65-10.287C277.58,1235.451,277.842,1235.643,278.104,1235.832z"/>
			<path fill="#DAA520" d="M275.545,1156.391c2.886,0.006,5.604,0.645,8.042,2.242c6.131,4.012,6.131,12.336-0.143,16.098
				c-5.201,3.123-10.669,3.133-15.876,0.029c-6.479-3.859-6.351-12.4,0.097-16.324
				C269.884,1157.086,272.607,1156.381,275.545,1156.391z"/>
		</g>
		<path display="inline" fill="#DAA520" d="M261.426,1098.445c-60.473,0-109.495,49.023-109.495,109.494
			s49.022,109.496,109.495,109.496c60.47,0,109.493-49.025,109.493-109.496S321.896,1098.445,261.426,1098.445z M261.426,1296.863
			c-49.111,0-88.924-39.812-88.924-88.924c0-49.109,39.812-88.922,88.924-88.922c49.109,0,88.921,39.812,88.921,88.922
			C350.347,1257.051,310.535,1296.863,261.426,1296.863z"/>
	</g>
	<g id="info_1_">
		<g id="i_1_" display="inline">
			<path fill="#FFD700" d="M482.601,1443.895c0.285,4.99,0.056,9.502-3.89,13.736c-8.971,9.613-18.163,18.678-31.245,22.43
				c-8.008,2.297-15.985,3.215-24.04-0.119c-7.439-3.086-13.288-9.803-9.113-20.584c9.707-25.088,18.758-50.428,28.092-75.664
				c0.716-1.938,1.683-3.863-0.254-5.639c-1.97-1.814-4.054-1.047-6.037-0.066c-2.611,1.289-4.92,3.043-6.927,5.15
				c-5.227,5.479-10.424,10.986-16.075,16.154c-1.018-5.195-1.39-9.586,2.791-13.67c12.095-11.814,25.287-21.555,42.296-24.834
				c10.624-2.049,21.041,3.889,23.204,12.934c0.793,3.314,0.229,6.41-0.933,9.529c-9.344,25.102-18.646,50.213-27.946,75.336
				c-0.735,1.979-2.051,4.059,0.127,5.949c2.115,1.842,4.323,0.91,6.405-0.08c2.52-1.197,4.77-2.824,6.683-4.859
				c5.212-5.529,10.397-11.08,15.594-16.623C481.756,1443.281,482.179,1443.588,482.601,1443.895z"/>
			<path fill="#FFD700" d="M478.467,1315.535c4.663,0.006,9.058,1.041,12.995,3.621c9.905,6.48,9.905,19.934-0.23,26.012
				c-8.403,5.047-17.236,5.062-25.649,0.049c-10.473-6.236-10.262-20.037,0.154-26.377
				C469.32,1316.658,473.722,1315.52,478.467,1315.535z"/>
		</g>
		<path display="inline" fill="#FFD700" d="M455.654,1221.908c-97.712,0-176.921,79.207-176.921,176.918
			c0,97.709,79.209,176.922,176.921,176.922c97.705,0,176.918-79.213,176.918-176.922
			C632.572,1301.115,553.359,1221.908,455.654,1221.908z M455.654,1542.508c-79.354,0-143.685-64.328-143.685-143.682
			c0-79.352,64.331-143.68,143.685-143.68c79.351,0,143.678,64.328,143.678,143.68
			C599.331,1478.18,535.004,1542.508,455.654,1542.508z"/>
	</g>
	<g id="info_3_">
		<g id="i_3_" display="inline">
			<path fill="#FFFFFF" d="M20.295,1480.666c0.285,4.992,0.055,9.504-3.89,13.738c-8.97,9.613-18.163,18.676-31.245,22.428
				c-8.008,2.299-15.985,3.217-24.04-0.117c-7.44-3.086-13.288-9.803-9.113-20.584c9.707-25.088,18.758-50.43,28.091-75.664
				c0.716-1.938,1.683-3.863-0.253-5.639c-1.97-1.814-4.054-1.047-6.037-0.066c-2.612,1.289-4.92,3.043-6.927,5.15
				c-5.227,5.479-10.424,10.986-16.076,16.152c-1.017-5.195-1.389-9.584,2.791-13.668c12.095-11.816,25.288-21.555,42.296-24.834
				c10.624-2.049,21.041,3.889,23.205,12.932c0.792,3.316,0.229,6.41-0.933,9.529c-9.344,25.104-18.646,50.215-27.947,75.336
				c-0.735,1.98-2.05,4.061,0.128,5.951c2.115,1.842,4.323,0.91,6.405-0.08c2.519-1.197,4.769-2.824,6.682-4.861
				c5.212-5.527,10.398-11.08,15.594-16.621C19.45,1480.053,19.873,1480.359,20.295,1480.666z"/>
			<path fill="#FFFFFF" d="M16.161,1352.309c4.663,0.006,9.058,1.041,12.995,3.619c9.905,6.48,9.905,19.934-0.23,26.014
				c-8.404,5.045-17.237,5.061-25.65,0.047c-10.472-6.236-10.262-20.037,0.154-26.377
				C7.015,1353.432,11.416,1352.293,16.161,1352.309z"/>
		</g>
		<path display="inline" fill="#FFFFFF" d="M-6.652,1258.682c-97.711,0-176.92,79.207-176.92,176.918
			c0,97.707,79.209,176.922,176.92,176.922c97.706,0,176.918-79.215,176.918-176.922
			C170.266,1337.889,91.054,1258.682-6.652,1258.682z M-6.652,1579.281c-79.353,0-143.684-64.328-143.684-143.682
			s64.331-143.68,143.684-143.68c79.351,0,143.678,64.326,143.678,143.68S72.698,1579.281-6.652,1579.281z"/>
	</g>
	<g id="info_b_big">
		<g id="i" display="inline">
			
				<radialGradient id="SVGID_1_" cx="-198.6753" cy="-330.4697" r="158.886" gradientTransform="matrix(1.0704 0.0685 -0.1953 -0.9119 445.8652 959.2758)" gradientUnits="userSpaceOnUse">
				<stop  offset="0" style="stop-color:#434E57"/>
				<stop  offset="1" style="stop-color:#1B1E21"/>
			</radialGradient>
			<path fill="url(#SVGID_1_)" d="M408.68,1205.225c15.67,7.906,29.208,16.156,37.219,32.344
				c18.163,36.766,34.336,73.09,29.312,109.121c-3.074,22.045-10.337,41.674-30.744,54.184
				c-18.87,11.553-46.865,13.271-74.663-14.643c-64.688-64.951-130.981-128.852-196.602-193.213
				c-5.042-4.934-9.719-10.418-17.611-9.08c-8.055,1.352-8.337,7.375-7.838,13.547c0.659,8.111,3.122,16.346,7.048,24.49
				c10.201,21.211,20.526,42.416,29.23,64.051c-17.218-6.594-31.155-13.271-38.395-29.729
				c-20.964-47.617-34.161-94.146-22.729-138.254c7.141-27.555,38.518-40.941,68.997-30.346
				c11.177,3.891,19.948,10.457,28.057,18.441c65.193,64.143,130.465,128.219,195.771,192.311c5.147,5.061,9.86,11.604,18.414,9.91
				c8.322-1.631,8.265-8.225,7.858-14.631c-0.494-7.744-2.639-15.629-6.471-23.447c-10.375-21.26-20.845-42.512-31.277-63.76
				C405.729,1206.082,407.206,1205.656,408.68,1205.225z"/>
			<path fill="#1B1E21" d="M9.703,994.633c5.914-10.529,14.637-18.699,27.529-23.189c32.404-11.307,73.664,11.742,79.51,45.09
				c4.849,27.662-6.266,47.67-32.276,58.125c-32.364,13-74.429-11.115-80.717-45.547C1.591,1017.254,3.655,1005.35,9.703,994.633z"
				/>
		</g>
	</g>
</g>
<linearGradient id="logo_2_" gradientUnits="userSpaceOnUse" x1="-301.4902" y1="-567.3188" x2="-67.0683" y2="-126.4134" gradientTransform="matrix(0.9999 -0.013 -0.013 -0.9999 382.6235 980.3416)">
	<stop  offset="0" style="stop-color:#7F0000"/>
	<stop  offset="1" style="stop-color:#AF3A31"/>
</linearGradient>
<path id="logo" fill="url(#logo_2_)" d="M402.45,1296.047c15.771,7.701,29.415,15.775,37.635,31.859
	c18.639,36.525,35.281,72.637,30.726,108.729c-2.787,22.086-9.796,41.809-30.039,54.58c-18.719,11.795-46.688,13.877-74.847-13.676
	c-65.524-64.105-132.642-127.141-199.091-190.646c-5.105-4.867-9.852-10.291-17.728-8.852c-8.037,1.457-8.241,7.482-7.662,13.648
	c0.764,8.104,3.334,16.305,7.364,24.396c10.477,21.076,21.074,42.146,30.06,63.668c-17.301-6.369-31.324-12.867-38.775-29.229
	c-21.58-47.342-35.379-93.695-24.521-137.947c6.783-27.646,37.982-41.438,68.596-31.238c11.227,3.744,20.083,10.197,28.293,18.076
	c66.021,63.291,132.117,126.516,198.248,189.754c5.213,4.994,10.011,11.477,18.541,9.674c8.301-1.742,8.156-8.334,7.668-14.732
	c-0.595-7.738-2.841-15.594-6.773-23.363c-10.648-21.123-21.394-42.234-32.103-63.346
	C399.51,1296.943,400.982,1296.498,402.45,1296.047z M0.775,1090.646c5.777-10.605,14.393-18.889,27.226-23.543
	c32.254-11.729,73.81,10.785,80.088,44.053c5.207,27.598-5.647,47.748-31.52,58.539c-32.193,13.418-74.566-10.15-81.301-44.496
	C-7.042,1113.371-5.133,1101.441,0.775,1090.646z M278.054,944.498l-116.684,1.938l-23.729,17.852l1.975,1.938l-77.129,1.939
	l5.933-7.938l-176.015-3.963l-1.97,11.9l-1.971,17.852l11.865,21.811l-5.934,45.611l-9.892,39.66l5.933,37.676l1.97,29.75
	l11.865,39.658l-3.958,19.824l1.971,21.812l13.841,15.877l3.958,25.791l-25.704,9.914l3.958,79.316l15.832,11.898l-9.901,69.41
	l-7.903,3.967l-5.931,132.877l6.987-0.939l16.811,3.471c0,0,20.282,7.039,24.483,8.434c4.195,1.381,10.434-6.32,10.434-6.32h16.815
	l13.976-2.812l7.714,3.539l6.985-0.695l17.498-1.324l8.342-3.527l3.524,8.428l2.785-2.021l7.719-3.527l16.064-1.332l3.466,4.896
	c0,0,19.584,2.02,26.57,2.02s5.625-5.645,5.625-5.645s2.074-0.629,5.562,2.855c3.499,3.506,8.393-1.355,8.393-1.355l6.988-3.537
	l4.947,4.963l4.883,3.475l13.294-2.771h21.625l4.947-1.379l20.278,28.74l1.355-14.689h32.878c2.803,0,1.428,9.799,1.428,9.799
	l21.625-7.016l11.185,11.209l23.121-14.752l12.545-2.025l24.481-1.322h34.98l39.867,2.77l10.502-4.219l7.674-7.004l21.006,11.906
	l15.338-6.312c0,0,16.793,6.359,19.598,7.074c2.804,0.695,28.677-2.855,28.677-2.855l16.067-4.219l-10.434-7.686l6.973-2.775
	l29.37,1.332l39.113,9.838l-0.68-256.02v-16.115l-9.766,1.375l-12.607,2.037v-7.748l6.98-6.326l5.627-8.361l1.363-30.178
	l-2.105-21.762l-9.082-26.639l-8.352-11.227l-1.426-10.475l2.107-7.021l0.682-2.037l9.074-3.537l1.43-3.535l-6.98-11.896l6.303-3.59
	l9.895-5.947l3.961-35.688l1.975-23.797v-83.305l-5.938-23.805l3.961-25.771l1.973-9.912l-17.799-7.938l-67.253-11.887
	l-9.893,13.875l-3.961-15.857l-128.541-1.938l-3.967,21.811l-31.636,3.98l-3.967-13.895l-27.688-3.961l9.896-11.896L278.054,944.498
	z M391.816,1062.145l50.362,26.588l-14.022,98.158l-9.756,2.855l-134.242-102.344l107.656-25.229 M14.256,1354.027l137.021,137.354
	l-82.521,29.449l-43.327-2.77l-53.16-44.863l41.971-119.172"/>
<path display="none" fill="#DAA520" d="M402.45,1296.047c15.771,7.701,29.415,15.775,37.635,31.859
	c18.639,36.525,35.281,72.637,30.726,108.729c-2.787,22.086-9.796,41.809-30.039,54.58c-18.719,11.795-46.688,13.877-74.847-13.676
	c-65.524-64.105-132.642-127.141-199.091-190.646c-5.105-4.867-9.852-10.291-17.728-8.852c-8.037,1.457-8.241,7.482-7.662,13.648
	c0.764,8.104,3.334,16.305,7.364,24.396c10.477,21.076,21.074,42.146,30.06,63.668c-17.301-6.369-31.324-12.867-38.775-29.229
	c-21.58-47.342-35.379-93.695-24.521-137.947c6.783-27.646,37.982-41.438,68.596-31.238c11.227,3.744,20.083,10.197,28.293,18.076
	c66.021,63.291,132.117,126.516,198.248,189.754c5.213,4.994,10.011,11.477,18.541,9.674c8.301-1.742,8.156-8.334,7.668-14.732
	c-0.595-7.738-2.841-15.594-6.773-23.363c-10.648-21.123-21.394-42.234-32.103-63.346
	C399.51,1296.943,400.982,1296.498,402.45,1296.047z"/>
<path display="none" fill="#DAA520" d="M0.775,1090.646c5.777-10.605,14.393-18.889,27.226-23.543
	c32.254-11.729,73.81,10.785,80.088,44.053c5.207,27.598-5.647,47.748-31.52,58.539c-32.193,13.418-74.566-10.15-81.301-44.496
	C-7.042,1113.371-5.133,1101.441,0.775,1090.646z"/>
</svg>
