<?xml version="1.0" encoding="utf-8"?>
<!-- Generator: Adobe Illustrator 16.0.0, SVG Export Plug-In . SVG Version: 6.00 Build 0)  -->
<!DOCTYPE svg PUBLIC "-//W3C//DTD SVG 1.1//EN" "http://www.w3.org/Graphics/SVG/1.1/DTD/svg11.dtd">
<svg version="1.1" xmlns="http://www.w3.org/2000/svg" xmlns:xlink="http://www.w3.org/1999/xlink" x="0px" y="0px" width="1600px"
	 height="560px" viewBox="0 0 1600 560" enable-background="new 0 0 1600 560" xml:space="preserve">
<g id="Layer_1">
	
		<radialGradient id="inner_1_" cx="269.3213" cy="271.9204" r="167.1121" gradientTransform="matrix(1.0415 0 0 0.9619 -0.9238 18.0264)" gradientUnits="userSpaceOnUse">
		<stop  offset="0" style="stop-color:#434E57"/>
		<stop  offset="1" style="stop-color:#1B1E21"/>
	</radialGradient>
	<rect id="inner" x="112.581" y="112.581" fill="url(#inner_1_)" width="334.001" height="334.001"/>
	
		<linearGradient id="logo_1_" gradientUnits="userSpaceOnUse" x1="-435.2085" y1="583.3799" x2="-433.9987" y2="581.1151" gradientTransform="matrix(106.7749 0 0 106.7696 46671.9375 -61862.1758)">
		<stop  offset="0" style="stop-color:#7F0000"/>
		<stop  offset="1" style="stop-color:#AF3A31"/>
	</linearGradient>
	<path id="logo" fill="url(#logo_1_)" d="M308.826,93.922l-63.718,1.057l-12.957,9.748l1.077,1.059l-42.117,1.059l3.24-4.335
		l-96.114-2.164l-1.076,6.5l-1.077,9.746l6.478,11.91l-3.239,24.907l-5.402,21.658l3.24,20.571l1.076,16.246l6.479,21.658
		l-2.161,10.824l1.077,11.91l7.557,8.671l2.163,14.082l-14.036,5.414l2.162,43.313l8.645,6.497l-5.407,37.902l-4.316,2.167
		l-3.239,72.558l3.816-0.514l9.18,1.894c0,0,11.075,3.844,13.369,4.604c2.291,0.754,5.698-3.451,5.698-3.451h9.182l7.632-1.536
		l4.212,1.933l3.813-0.378l9.555-0.724l4.555-1.932l1.924,4.604l1.521-1.104l4.214-1.928l8.772-0.728l1.893,2.677
		c0,0,10.694,1.099,14.51,1.099s3.071-3.079,3.071-3.079s1.133-0.343,3.039,1.559c1.911,1.916,4.583-0.739,4.583-0.739l3.815-1.933
		l2.702,2.71l2.666,1.896l7.259-1.512h11.809l2.701-0.754l11.073,15.696l0.742-8.021h17.954c1.53,0,0.779,5.349,0.779,5.349
		l11.809-3.828l6.104,6.12l12.626-8.055l6.85-1.108l13.372-0.723h19.1l21.771,1.512l5.733-2.305l4.19-3.824l11.472,6.502
		l8.375-3.443c0,0,9.17,3.473,10.701,3.861c1.528,0.381,15.656-1.56,15.656-1.56l8.777-2.302l-5.697-4.196l3.807-1.517l16.037,0.728
		l21.357,5.373l-0.369-139.806V305.2l-5.331,0.75l-6.886,1.113v-4.231l3.813-3.455l3.072-4.566l0.745-16.479l-1.152-11.882
		l-4.959-14.546l-4.559-6.127l-0.779-5.719l1.152-3.832l0.372-1.114l4.955-1.932l0.778-1.93l-3.81-6.497l3.44-1.96l5.403-3.249
		l2.162-19.487l1.075-12.994v-45.489l-3.238-12.997l2.161-14.072l1.075-5.413l-9.717-4.334l-36.724-6.491l-5.401,7.576l-2.164-8.66
		l-70.191-1.058L338,108.032l-17.272,2.174l-2.165-7.586l-15.122-2.163l5.403-6.498L308.826,93.922z M171.601,155.07
		l251.281,170.765l-19.874,71.192l-47.35,1.56L136.493,164.279l35.134-9.199 M370.944,158.162l27.505,14.518l-7.66,53.602
		l-5.327,1.559l-73.304-55.884l58.786-13.776 M164.777,312.088l74.82,75.005l-45.06,16.082l-23.659-1.514l-29.029-24.499
		l22.919-65.074"/>
</g>
<g id="text">
	<text transform="matrix(1 0 0 1 568.002 305.1162)" fill="#9D241F" font-family="'Helvetica'" font-size="133">POCKET DOTA</text>
</g>
</svg>
