<?xml version="1.0" encoding="utf-8"?>
<!-- Generator: Adobe Illustrator 16.0.0, SVG Export Plug-In . SVG Version: 6.00 Build 0)  -->
<!DOCTYPE svg PUBLIC "-//W3C//DTD SVG 1.1//EN" "http://www.w3.org/Graphics/SVG/1.1/DTD/svg11.dtd">
<svg version="1.1" id="Layer_1" xmlns="http://www.w3.org/2000/svg" xmlns:xlink="http://www.w3.org/1999/xlink" x="0px" y="0px"
	 width="1242px" height="2436px" viewBox="0 0 1242 2436" enable-background="new 0 0 1242 2436" xml:space="preserve">
<rect id="back" fill="#1B1E21" width="1242" height="2436"/>
<radialGradient id="inner_1_" cx="610.7231" cy="1229.3779" r="247.5335" gradientTransform="matrix(1.0415 0 0 0.9619 -15.0854 35.4849)" gradientUnits="userSpaceOnUse">
	<stop  offset="0" style="stop-color:#434E57"/>
	<stop  offset="1" style="stop-color:#1B1E21"/>
</radialGradient>
<rect id="inner" x="373.632" y="970.632" fill="url(#inner_1_)" width="494.736" height="494.736"/>
<linearGradient id="logo_1_" gradientUnits="userSpaceOnUse" x1="-94.5059" y1="1046.4521" x2="-92.7888" y2="1043.2375" gradientTransform="matrix(106.7749 0 0 106.7696 10602.6875 -110304.625)">
	<stop  offset="0" style="stop-color:#7F0000"/>
	<stop  offset="1" style="stop-color:#AF3A31"/>
</linearGradient>
<path id="logo" fill="url(#logo_1_)" d="M662.51,954.471l-90.441,1.501l-18.39,13.835l1.527,1.502l-59.782,1.504l4.599-6.153
	l-136.426-3.072l-1.527,9.226l-1.528,13.834l9.196,16.906l-4.599,35.354l-7.667,30.741l4.598,29.2l1.527,23.059l9.196,30.742
	l-3.067,15.365l1.528,16.905l10.729,12.307l3.068,19.99l-19.922,7.683l3.068,61.482l12.271,9.221l-7.674,53.8l-6.125,3.075
	l-4.598,102.99l5.416-0.729l13.03,2.687c0,0,15.72,5.456,18.976,6.536c3.252,1.07,8.087-4.898,8.087-4.898h13.034l10.832-2.18
	l5.979,2.743l5.414-0.539l13.562-1.026l6.466-2.739l2.731,6.533l2.158-1.567l5.983-2.736l12.451-1.033l2.687,3.799
	c0,0,15.179,1.562,20.594,1.562c5.417,0,4.36-4.371,4.36-4.371s1.609-0.487,4.312,2.213c2.712,2.717,6.505-1.051,6.505-1.051
	l5.417-2.743l3.834,3.847l3.785,2.691l10.304-2.147h16.761l3.834-1.068l15.718,22.279l1.054-11.387h25.483
	c2.172,0,1.106,7.592,1.106,7.592l16.762-5.433l8.665,8.688l17.921-11.435l9.724-1.573l18.979-1.026h27.11l30.901,2.146l8.14-3.271
	l5.947-5.429l16.281,9.229l11.89-4.889c0,0,13.015,4.929,15.188,5.482c2.17,0.54,22.224-2.214,22.224-2.214l12.457-3.269
	l-8.086-5.957l5.404-2.151l22.764,1.033l30.315,7.625l-0.525-198.441v-12.489l-7.566,1.066l-9.775,1.578v-6.005l5.414-4.902
	l4.361-6.482l1.057-23.389l-1.635-16.867l-7.039-20.647l-6.471-8.697l-1.105-8.119l1.635-5.439l0.527-1.581l7.033-2.743l1.107-2.74
	l-5.409-9.222l4.883-2.782l7.67-4.611l3.069-27.66l1.527-18.445v-64.566l-4.599-18.449l3.07-19.975l1.526-7.683l-13.794-6.154
	l-52.126-9.212l-7.668,10.754l-3.07-12.292l-99.631-1.502l-3.074,16.904l-24.518,3.086l-3.075-10.768l-21.463-3.07l7.669-9.223
	L662.51,954.471z M467.73,1041.265l356.673,242.389l-28.207,101.051l-67.21,2.213l-311.089-332.58l49.871-13.058 M750.684,1045.654
	l39.039,20.608l-10.871,76.083l-7.562,2.213l-104.049-79.324l83.443-19.553 M458.044,1264.141l106.2,106.465l-63.959,22.826
	l-33.582-2.15l-41.204-34.772l32.532-92.368"/>
</svg>
